<?xml version="1.0" encoding="utf-8"?>
<!-- Generator: Adobe Illustrator 22.0.1, SVG Export Plug-In . SVG Version: 6.00 Build 0)  -->
<svg version="1.1" id="Layer_1" xmlns="http://www.w3.org/2000/svg" xmlns:xlink="http://www.w3.org/1999/xlink" x="0px" y="0px"
	 width="260px" height="260px" viewBox="0 0 260 260" style="enable-background:new 0 0 260 260;" xml:space="preserve">
<g>
	<path d="M198.4,61.6c-17.4-17.2-41.3-27.8-67.7-27.8c-0.2,0-0.5,0-0.7,0c-25.2,0.2-48,10-65.1,26l-5.6,5.7
		C43.9,82.5,34.5,105.1,34.5,130c0,26.4,10.6,50.3,27.8,67.7c17.3,17.5,41.2,28.4,67.7,28.6c0.2,0,0.5,0,0.7,0
		c26.4,0,50.3-10.6,67.7-27.8C216.1,181,227,156.8,227,130C227,103.2,216.1,79,198.4,61.6z M153.1,113.4c0.3,0.7,0.6,1.2,1,1.6
		c0.6,0.6,1.3,1.1,2.1,1.6c1.3,0.7,2.6,1.3,4.1,1.9c1.7,0.6,3.4,1.2,5.1,1.7c2.1,0.6,4.2,1.3,6.3,2.1c2.3,0.8,4.4,1.8,6.4,2.9
		c2.5,1.3,4.6,2.9,6.5,4.7c2.1,2.1,3.8,4.5,5,7.4c1.2,2.9,1.9,6.1,1.9,9.7c0,3.8-0.7,7.5-2,11c0,0.1-0.1,0.2-0.1,0.3
		c-1.4,3.7-3.6,6.9-6.3,9.7c-2.7,2.7-6.1,4.9-9.9,6.5c-3.8,1.6-8.1,2.3-12.7,2.3H114c-11.6,0-23.2-4.2-32.1-12.7
		c-2-1.9-3.8-4-5.4-6.1c-13.8-18.5-12.1-44.7,4.8-61.3c9.2-9.1,21.3-13.5,33.2-13.4l9,0.1l-0.1,12.8c0,3.3-2.8,6-6.1,6l-3,0
		c-7.9-0.1-15.8,3.1-21.4,9.6c-8.7,10-9.1,25-0.9,35.4c5.5,7,13.5,10.6,21.5,10.8c0.4,0,0.8,0,1.2,0h44.7c0.4,0,0.7,0,1.1,0
		c0.4,0,0.7,0,1.1,0c1.7-0.1,3.2-0.4,4.5-0.9c1.5-0.6,2.7-1.4,3.7-2.4c0.9-0.9,1.6-2,2.1-3.3c0.5-1.4,0.8-2.8,0.8-4.4
		c0-1.4-0.2-2.1-0.3-2.4c-0.2-0.6-0.5-1-0.9-1.3c-0.6-0.6-1.3-1.1-2.1-1.5c-1.3-0.7-2.7-1.3-4.1-1.8c-1.7-0.6-3.4-1.2-5.2-1.7
		c-2.1-0.6-4.2-1.3-6.3-2.1c-2.3-0.9-4.4-1.9-6.5-3c-2.5-1.4-4.7-3.1-6.6-5c-2.1-2.1-3.7-4.7-4.9-7.6c-1.2-2.9-1.8-6.2-1.8-9.9
		c0-1,0.1-2.1,0.2-3.1c0.3-2.5,0.9-4.9,1.8-7.2c1.4-3.4,3.4-6.4,6-8.9c2.6-2.5,5.7-4.5,9.4-6c3.6-1.4,7.6-2.1,12-2.1
		c4.8,0,9.3,0.8,13.2,2.5c2.2,0.9,4.2,2.1,6.2,3.6c0.3,0.2,0.6,0.4,0.8,0.6c0.4,0.4,0.9,0.7,1.3,1.1c1,0.9,2,1.8,3,2.8l6.3,6.4
		l-9.2,9c-2.4,2.3-6.2,2.3-8.6-0.1l-2.1-2.1c-1.1-1.2-2.4-2.2-3.7-3.2c-0.5-0.3-1-0.6-1.5-0.8c-1.6-0.7-3.6-1-5.9-1
		c-2,0-3.7,0.3-5.1,0.8c-1.3,0.5-2.4,1.2-3.2,1.9c-0.8,0.8-1.3,1.6-1.7,2.6c-0.4,1.1-0.6,2.1-0.6,3.3
		C152.7,112.2,153,113.1,153.1,113.4z"/>
	<path d="M0,0v260h260V0H0z M207.1,207.1c-19.7,19.7-47,31.9-77.1,31.9v0c-30.1,0-57.3-12.2-77.1-31.9l0,0
		C33.2,187.3,21,160.1,21,130h0c0-30.1,12.2-57.4,31.9-77.1l0,0l0,0l0,0c1.3-1.3,2.6-2.5,3.9-3.7l0,0l0,0C76.2,31.7,101.8,21,130,21
		v0c30.1,0,57.3,12.2,77.1,31.9l0,0c19.7,19.7,31.9,47,31.9,77.1C239,160.1,226.8,187.3,207.1,207.1L207.1,207.1z"/>
</g>
</svg>
