<?xml version="1.0" encoding="utf-8"?>
<!-- Generator: Adobe Illustrator 25.1.0, SVG Export Plug-In . SVG Version: 6.00 Build 0)  -->
<svg version="1.1" id="Layer_1" xmlns="http://www.w3.org/2000/svg" xmlns:xlink="http://www.w3.org/1999/xlink" x="0px" y="0px"
	 viewBox="0 0 80 80" style="enable-background:new 0 0 80 80;" xml:space="preserve">
<style type="text/css">
	.st0{fill:#17479E;}
	.st1{fill:#00AEEF;}
	.st2{fill:#EF4136;}
	.st3{fill:#39B54A;}
	.st4{fill:#F5D025;}
	.st5{fill:#A88074;}
	.st6{fill:#662D91;}
	.st7{fill:#F7941D;}
	.st8{fill:#EC008C;}
</style>
<polygon class="st0" points="40.5,40 40.5,40 40.5,40 "/>
<polygon class="st0" points="40.5,40 40.5,40 40.5,40 "/>
<path class="st1" d="M40.5,20.1v-2.6c-6,0-11.7,2.4-15.9,6.6l1.9,1.9C30.2,22.3,35.2,20.1,40.5,20.1z"/>
<path class="st2" d="M26.5,26L26.5,26l-1.9-1.9C20.4,28.3,18,34,18,40h2.6C20.6,34.7,22.7,29.7,26.5,26z"/>
<path class="st3" d="M20.6,40H18c0,6,2.4,11.7,6.6,15.9l1.9-1.9C22.7,50.3,20.6,45.3,20.6,40z"/>
<path class="st4" d="M26.5,54L26.5,54l-1.9,1.9c4.2,4.2,9.9,6.6,15.9,6.6v-2.6C35.2,59.9,30.2,57.8,26.5,54z"/>
<path class="st5" d="M54.5,54c-3.7,3.7-8.7,5.8-14,5.8v2.6c6,0,11.7-2.4,15.9-6.6L54.5,54L54.5,54z"/>
<path class="st6" d="M60.3,40c0,5.3-2.1,10.3-5.8,14l1.9,1.9C60.6,51.7,63,46,63,40H60.3z"/>
<path class="st7" d="M54.5,26c3.7,3.7,5.8,8.7,5.8,14H63c0-6-2.4-11.7-6.6-15.9L54.5,26z"/>
<path class="st8" d="M54.5,26l1.9-1.9c-4.2-4.2-9.9-6.6-15.9-6.6v2.6C45.7,20.2,50.8,22.3,54.5,26z"/>
<path class="st0" d="M52.9,41.4c0.3,0.6,0.4,1.3,0.4,2c0,0.8-0.1,1.5-0.4,2.3c0,0,0,0,0,0.1c-0.3,0.7-0.7,1.4-1.3,2
	c-0.6,0.6-1.3,1-2,1.3c-0.8,0.3-1.7,0.5-2.6,0.5h-9.7c-5.3,0.1-9.8-4.1-9.9-9.4c-0.1-5.3,4.1-9.8,9.4-9.9c0.2,0,0.4,0,0.6,0h1.9v2.7
	c0,0.7-0.6,1.2-1.3,1.2c0,0,0,0,0,0h-0.6c-3.2,0-5.8,2.5-5.8,5.7s2.5,5.8,5.7,5.8l0,0h9.9c0.3,0,0.6-0.1,0.9-0.2
	c0.3-0.1,0.6-0.3,0.8-0.5c0.2-0.2,0.3-0.4,0.4-0.7c0.1-0.3,0.2-0.6,0.2-0.9c0-0.2,0-0.3-0.1-0.5c0-0.1-0.1-0.2-0.2-0.3
	c-0.1-0.1-0.3-0.2-0.4-0.3c-0.3-0.1-0.6-0.3-0.9-0.4c-0.3-0.1-0.7-0.2-1.1-0.4c-0.4-0.1-0.9-0.3-1.3-0.4c-0.5-0.2-0.9-0.4-1.3-0.6
	c-0.5-0.3-1-0.6-1.4-1c-0.4-0.5-0.8-1-1-1.6c-0.3-0.6-0.4-1.3-0.4-2c0-0.2,0-0.4,0-0.6c0.1-0.5,0.2-1,0.4-1.5
	c0.3-0.7,0.7-1.3,1.2-1.8c0.6-0.6,1.2-1,1.9-1.3c0.8-0.3,1.6-0.5,2.5-0.4c0.9,0,1.9,0.2,2.7,0.5c0.5,0.2,0.9,0.4,1.3,0.7l0.2,0.1
	l0.3,0.2c0.2,0.2,0.4,0.4,0.6,0.6l1.3,1.3L52,35.6c-0.5,0.5-1.3,0.5-1.8,0c0,0,0,0,0,0l-0.4-0.4c-0.2-0.2-0.5-0.5-0.8-0.7
	c-0.1-0.1-0.2-0.1-0.3-0.2c-0.4-0.2-0.8-0.2-1.2-0.2c-0.3,0-0.7,0.1-1,0.2c-0.2,0.1-0.5,0.2-0.7,0.4c-0.2,0.1-0.3,0.3-0.4,0.5
	c-0.1,0.2-0.1,0.4-0.1,0.7c0,0.2,0,0.4,0.1,0.6c0.1,0.1,0.1,0.2,0.2,0.3c0.1,0.1,0.3,0.2,0.4,0.3c0.3,0.1,0.5,0.3,0.8,0.4
	s0.7,0.2,1.1,0.3s0.9,0.3,1.3,0.4c0.5,0.2,0.9,0.4,1.3,0.6c0.5,0.3,1,0.6,1.3,1C52.3,40.3,52.6,40.9,52.9,41.4z"/>
</svg>
