<svg xmlns="http://www.w3.org/2000/svg" viewBox="0 0 330 80" name="contact-suite"><defs><style>.a{fill:#fff;}.b{fill:#17479e;}.c{fill:#00aeef;}.d{fill:#ef4136;}.e{fill:#39b54a;}.f{fill:#f5d025;}.g{fill:#a88074;}.h{fill:#662d91;}.i{fill:#f7941d;}.j{fill:#ec008c;}</style></defs><title>navLogo</title><rect class="a" width="80" height="80"/><rect class="a" x="80" width="250" height="80"/><path class="b" d="M165.14,46a.31.31,0,0,1,.22.09l.53.57a8.26,8.26,0,0,1-2.77,2,9.15,9.15,0,0,1-1.79.54,10.89,10.89,0,0,1-2.13.19,9.19,9.19,0,0,1-3.57-.68,7.9,7.9,0,0,1-2.78-1.93,9.05,9.05,0,0,1-1.81-3,11.43,11.43,0,0,1-.64-3.94,11,11,0,0,1,.66-3.89,9,9,0,0,1,1.88-3,8.45,8.45,0,0,1,2.9-2,9.79,9.79,0,0,1,3.73-.7,10.66,10.66,0,0,1,1.86.16,8.3,8.3,0,0,1,1.58.43,7.91,7.91,0,0,1,1.39.71,11.1,11.1,0,0,1,1.27,1l-.41.6a.41.41,0,0,1-.34.16.6.6,0,0,1-.3-.14c-.12-.1-.28-.21-.47-.35l-.69-.45a6.18,6.18,0,0,0-1-.45,8.73,8.73,0,0,0-1.28-.34,9.15,9.15,0,0,0-1.65-.14,8.21,8.21,0,0,0-3.14.59A7,7,0,0,0,154,33.65a7.75,7.75,0,0,0-1.61,2.65,10,10,0,0,0-.57,3.48,10.58,10.58,0,0,0,.56,3.55A7.71,7.71,0,0,0,153.93,46a6.76,6.76,0,0,0,2.37,1.65,7.71,7.71,0,0,0,3,.58,10.79,10.79,0,0,0,1.8-.14,7,7,0,0,0,1.45-.39,6.55,6.55,0,0,0,1.23-.65,10,10,0,0,0,1.12-.9L165,46A.29.29,0,0,1,165.14,46Z"/><path class="b" d="M175.06,35.77a6.17,6.17,0,0,1,2.53.49,5.1,5.1,0,0,1,1.89,1.36,6.23,6.23,0,0,1,1.17,2.14,9.11,9.11,0,0,1,.4,2.8,9,9,0,0,1-.4,2.79,6.1,6.1,0,0,1-1.17,2.13,5,5,0,0,1-1.89,1.36,6.91,6.91,0,0,1-5.06,0,5.1,5.1,0,0,1-1.9-1.36,6.1,6.1,0,0,1-1.17-2.13,9,9,0,0,1-.41-2.79,9.1,9.1,0,0,1,.41-2.8,6.23,6.23,0,0,1,1.17-2.14,5.22,5.22,0,0,1,1.9-1.36A6.17,6.17,0,0,1,175.06,35.77Zm0,12.56a5.08,5.08,0,0,0,2.06-.4,4.06,4.06,0,0,0,1.47-1.16,5.32,5.32,0,0,0,.88-1.82,10,10,0,0,0,0-4.77,5.2,5.2,0,0,0-.88-1.83,4,4,0,0,0-1.47-1.17,5.26,5.26,0,0,0-4.12,0,4,4,0,0,0-1.47,1.17,5.2,5.2,0,0,0-.88,1.83,9.63,9.63,0,0,0,0,4.77,5.32,5.32,0,0,0,.88,1.82A4.06,4.06,0,0,0,173,47.93,5,5,0,0,0,175.06,48.33Z"/><path class="b" d="M184.89,49.15V36h.69a.35.35,0,0,1,.39.33l.12,2a7.3,7.3,0,0,1,2.1-1.83,5.17,5.17,0,0,1,2.67-.7,4.93,4.93,0,0,1,1.91.35,3.53,3.53,0,0,1,1.37,1,4.46,4.46,0,0,1,.82,1.56,7.28,7.28,0,0,1,.28,2.06v8.42H194V40.73a4.47,4.47,0,0,0-.85-2.9,3.13,3.13,0,0,0-2.59-1,4.54,4.54,0,0,0-2.41.67,6.82,6.82,0,0,0-2,1.83v9.87Z"/><path class="b" d="M203.32,49.36a2.84,2.84,0,0,1-2.08-.74,3.14,3.14,0,0,1-.74-2.29v-9h-1.89a.32.32,0,0,1-.24-.08.27.27,0,0,1-.09-.22v-.49l2.25-.16.31-4.71a.41.41,0,0,1,.1-.21.32.32,0,0,1,.23-.09h.59v5h4.14v.94h-4.14v8.93a2.86,2.86,0,0,0,.14.94,1.76,1.76,0,0,0,.38.64,1.55,1.55,0,0,0,.58.37,2.08,2.08,0,0,0,.71.12,2.23,2.23,0,0,0,.82-.14,3.35,3.35,0,0,0,.6-.3,4.32,4.32,0,0,0,.41-.31.46.46,0,0,1,.25-.14.31.31,0,0,1,.21.13l.35.56a3.63,3.63,0,0,1-1.28.89A3.91,3.91,0,0,1,203.32,49.36Z"/><path class="b" d="M218.1,49.15a.45.45,0,0,1-.49-.37l-.18-1.68c-.37.35-.72.67-1.08.95a7.09,7.09,0,0,1-1.12.72,5.69,5.69,0,0,1-1.26.44,6.8,6.8,0,0,1-1.48.15,4.42,4.42,0,0,1-1.31-.2,3.05,3.05,0,0,1-1.12-.61,2.91,2.91,0,0,1-.79-1A3.62,3.62,0,0,1,209,46a2.73,2.73,0,0,1,.48-1.55,3.92,3.92,0,0,1,1.49-1.24,9.78,9.78,0,0,1,2.6-.85,23.44,23.44,0,0,1,3.83-.37V40.58a4.47,4.47,0,0,0-.78-2.82,2.85,2.85,0,0,0-2.34-1,4.55,4.55,0,0,0-1.62.26,5.93,5.93,0,0,0-1.13.58,8.55,8.55,0,0,0-.76.59.81.81,0,0,1-.49.26.43.43,0,0,1-.39-.24l-.23-.38a7.56,7.56,0,0,1,2.17-1.56,6.1,6.1,0,0,1,2.58-.53,4.64,4.64,0,0,1,1.86.34,3.41,3.41,0,0,1,1.31,1,4.31,4.31,0,0,1,.79,1.52,6.92,6.92,0,0,1,.26,2v8.57Zm-5.29-.7a5.68,5.68,0,0,0,1.41-.17,5.16,5.16,0,0,0,1.19-.46,6,6,0,0,0,1-.71c.32-.27.63-.57.94-.88V42.8a23.28,23.28,0,0,0-3.23.28,9.82,9.82,0,0,0-2.24.63,3.26,3.26,0,0,0-1.29.95,2,2,0,0,0-.42,1.25,2.67,2.67,0,0,0,.22,1.14,2.24,2.24,0,0,0,.57.8,2.27,2.27,0,0,0,.84.45A3.21,3.21,0,0,0,212.81,48.45Z"/><path class="b" d="M231.77,37.74l-.13.12a.25.25,0,0,1-.16,0,.71.71,0,0,1-.37-.18,4.68,4.68,0,0,0-.61-.39,5.6,5.6,0,0,0-1-.39,5.29,5.29,0,0,0-3.41.23,4,4,0,0,0-1.49,1.16,5.47,5.47,0,0,0-.92,1.82,8.58,8.58,0,0,0-.31,2.41,8.34,8.34,0,0,0,.32,2.46,5.23,5.23,0,0,0,.92,1.81,3.88,3.88,0,0,0,1.44,1.11,4.45,4.45,0,0,0,1.88.39,4.74,4.74,0,0,0,2.65-.72,4.71,4.71,0,0,0,.67-.48.68.68,0,0,1,.39-.23.29.29,0,0,1,.26.13l.34.43a3.83,3.83,0,0,1-.76.74,5.3,5.3,0,0,1-1.05.59,6.17,6.17,0,0,1-1.26.39,6.64,6.64,0,0,1-1.42.14,5.56,5.56,0,0,1-2.3-.46,4.94,4.94,0,0,1-1.79-1.32,6.35,6.35,0,0,1-1.16-2.12,9,9,0,0,1-.42-2.86,9.13,9.13,0,0,1,.4-2.75,6.1,6.1,0,0,1,1.16-2.15,5.23,5.23,0,0,1,1.86-1.39,6.16,6.16,0,0,1,2.54-.5,6.06,6.06,0,0,1,2.28.41,5.76,5.76,0,0,1,1.74,1.11Z"/><path class="b" d="M239.26,49.36a2.83,2.83,0,0,1-2.08-.74,3.14,3.14,0,0,1-.74-2.29v-9h-1.89a.32.32,0,0,1-.24-.08.27.27,0,0,1-.09-.22v-.49l2.25-.16.31-4.71a.35.35,0,0,1,.1-.21.29.29,0,0,1,.23-.09h.59v5h4.14v.94H237.7v8.93a2.88,2.88,0,0,0,.13.94,1.92,1.92,0,0,0,.39.64,1.44,1.44,0,0,0,.57.37,2.09,2.09,0,0,0,.72.12,2.23,2.23,0,0,0,.82-.14,3,3,0,0,0,.59-.3,3.33,3.33,0,0,0,.41-.31.48.48,0,0,1,.26-.14.31.31,0,0,1,.21.13l.34.56a3.54,3.54,0,0,1-1.28.89A3.87,3.87,0,0,1,239.26,49.36Z"/><path class="b" d="M255.33,32.7a.37.37,0,0,1-.34.23.76.76,0,0,1-.45-.25,5.65,5.65,0,0,0-1.89-1.09,5.08,5.08,0,0,0-1.72-.25,5.23,5.23,0,0,0-1.8.29,3.74,3.74,0,0,0-1.3.79,3.44,3.44,0,0,0-.8,1.17,3.62,3.62,0,0,0-.27,1.39,2.82,2.82,0,0,0,.4,1.57,3.61,3.61,0,0,0,1.07,1.06,7,7,0,0,0,1.5.74l1.73.58c.59.2,1.17.41,1.73.65a6.1,6.1,0,0,1,1.51.88,4,4,0,0,1,1.06,1.3,4.13,4.13,0,0,1,.41,1.92,6,6,0,0,1-.41,2.22,5.23,5.23,0,0,1-1.17,1.81,5.59,5.59,0,0,1-1.88,1.21,6.9,6.9,0,0,1-2.54.44,7.32,7.32,0,0,1-3.19-.65,7.56,7.56,0,0,1-2.34-1.8l.37-.58a.48.48,0,0,1,.37-.2.61.61,0,0,1,.31.16l.45.39a7.72,7.72,0,0,0,.63.5,5.11,5.11,0,0,0,.87.51,6.63,6.63,0,0,0,1.12.39,6.37,6.37,0,0,0,1.45.16,5.55,5.55,0,0,0,2-.34,4.33,4.33,0,0,0,1.48-.92,3.93,3.93,0,0,0,.92-1.38,4.69,4.69,0,0,0,.32-1.72,3,3,0,0,0-.4-1.63,3.42,3.42,0,0,0-1.07-1.07,6.52,6.52,0,0,0-1.5-.72c-.57-.2-1.14-.39-1.73-.57s-1.17-.39-1.73-.62a6.23,6.23,0,0,1-1.51-.88,4.12,4.12,0,0,1-1.06-1.34,4.41,4.41,0,0,1-.41-2,4.71,4.71,0,0,1,.36-1.81,4.59,4.59,0,0,1,1-1.54,5,5,0,0,1,1.7-1.07,6.18,6.18,0,0,1,2.31-.41,7,7,0,0,1,2.62.47,6.41,6.41,0,0,1,2.11,1.41Z"/><path class="b" d="M260.92,36V44.4a4.47,4.47,0,0,0,.85,2.9,3.13,3.13,0,0,0,2.59,1.06,4.67,4.67,0,0,0,2.4-.66,7,7,0,0,0,2-1.82V36H270V49.15h-.69c-.25,0-.37-.12-.38-.34l-.12-2a7.57,7.57,0,0,1-2.11,1.82,5.26,5.26,0,0,1-2.67.69,5,5,0,0,1-1.93-.34,3.5,3.5,0,0,1-1.36-1,4.3,4.3,0,0,1-.82-1.56,6.89,6.89,0,0,1-.28-2.06V36Z"/><path class="b" d="M277,31.45a1,1,0,0,1-.1.44,1.19,1.19,0,0,1-.26.36,1.05,1.05,0,0,1-.37.25,1.06,1.06,0,0,1-.9,0,1.2,1.2,0,0,1-.62-.61,1.12,1.12,0,0,1-.09-.44,1.18,1.18,0,0,1,.09-.46,1.25,1.25,0,0,1,.25-.38,1.34,1.34,0,0,1,.37-.25,1.17,1.17,0,0,1,.9,0,1.21,1.21,0,0,1,.37.25,1.28,1.28,0,0,1,.26.38A1,1,0,0,1,277,31.45ZM276.46,36V49.15h-1.25V36Z"/><path class="b" d="M285.24,49.36a2.83,2.83,0,0,1-2.08-.74,3.09,3.09,0,0,1-.74-2.29v-9h-1.89a.32.32,0,0,1-.24-.08.27.27,0,0,1-.1-.22v-.49l2.25-.16.32-4.71a.35.35,0,0,1,.1-.21.29.29,0,0,1,.23-.09h.58v5h4.15v.94h-4.15v8.93a2.86,2.86,0,0,0,.14.94,1.77,1.77,0,0,0,.39.64,1.44,1.44,0,0,0,.57.37,2.09,2.09,0,0,0,.72.12,2.27,2.27,0,0,0,.82-.14,3,3,0,0,0,.59-.3,3.33,3.33,0,0,0,.41-.31.49.49,0,0,1,.25-.14.32.32,0,0,1,.22.13l.34.56a3.63,3.63,0,0,1-1.28.89A3.87,3.87,0,0,1,285.24,49.36Z"/><path class="b" d="M296.58,35.77a5.31,5.31,0,0,1,2.05.39,4.5,4.5,0,0,1,1.64,1.11,5.12,5.12,0,0,1,1.09,1.81,7.14,7.14,0,0,1,.39,2.46.65.65,0,0,1-.09.4.32.32,0,0,1-.27.1h-9.5v.26a9.26,9.26,0,0,0,.34,2.6,5.45,5.45,0,0,0,1,1.89,4,4,0,0,0,1.54,1.14,5,5,0,0,0,2,.39,6.2,6.2,0,0,0,1.72-.22,6.56,6.56,0,0,0,1.22-.49,7.15,7.15,0,0,0,.79-.49.91.91,0,0,1,.42-.22.3.3,0,0,1,.27.13l.34.43a3.64,3.64,0,0,1-.84.74,6.3,6.3,0,0,1-1.16.59,9.27,9.27,0,0,1-1.38.39,8.13,8.13,0,0,1-1.47.14,6.31,6.31,0,0,1-2.46-.47,5.21,5.21,0,0,1-1.91-1.37,6.26,6.26,0,0,1-1.23-2.2,9.39,9.39,0,0,1-.44-3,8.13,8.13,0,0,1,.41-2.62,5.93,5.93,0,0,1,1.16-2.06,5.34,5.34,0,0,1,1.87-1.36A6.21,6.21,0,0,1,296.58,35.77Zm0,.94a5,5,0,0,0-1.82.32,4,4,0,0,0-1.39.91,4.76,4.76,0,0,0-.95,1.43,6.34,6.34,0,0,0-.49,1.87h8.67a5.88,5.88,0,0,0-.29-1.9,4,4,0,0,0-.82-1.42,3.5,3.5,0,0,0-1.27-.9A4.32,4.32,0,0,0,296.59,36.71Z"/><polygon class="b" points="120 40 120 40 120 40 120 40"/><polygon class="b" points="120 40 120 40 120 40 120 40"/><path class="c" d="M120,20.13V17.5a22.44,22.44,0,0,0-15.91,6.59L106,26A19.8,19.8,0,0,1,120,20.13Z"/><path class="d" d="M106,26h0l-1.86-1.86A22.44,22.44,0,0,0,97.5,40h2.63A19.8,19.8,0,0,1,106,26Z"/><path class="e" d="M100.13,40H97.5a22.44,22.44,0,0,0,6.59,15.91L106,54.05A19.8,19.8,0,0,1,100.13,40Z"/><path class="f" d="M106,54.05h0l-1.86,1.86A22.44,22.44,0,0,0,120,62.5V59.87A19.8,19.8,0,0,1,106,54.05Z"/><path class="g" d="M134.05,54.05A19.8,19.8,0,0,1,120,59.87V62.5a22.44,22.44,0,0,0,15.91-6.59l-1.86-1.86Z"/><path class="h" d="M139.87,40a19.8,19.8,0,0,1-5.82,14l1.86,1.86A22.44,22.44,0,0,0,142.5,40Z"/><path class="i" d="M134.05,26A19.8,19.8,0,0,1,139.87,40h2.63a22.44,22.44,0,0,0-6.59-15.91L134.05,26Z"/><path class="j" d="M134,26l1.88-1.88A22.44,22.44,0,0,0,120,17.5v2.65A19.75,19.75,0,0,1,134,26Z"/><path class="b" d="M132.39,41.41a5.14,5.14,0,0,1,.38,2,6.43,6.43,0,0,1-.41,2.27.14.14,0,0,0,0,.06,5.84,5.84,0,0,1-1.31,2,6.08,6.08,0,0,1-2,1.34,6.87,6.87,0,0,1-2.62.48h-9.59a9.65,9.65,0,1,1,.09-19.29h1.87l0,2.65a1.25,1.25,0,0,1-1.26,1.24h-.61a5.76,5.76,0,0,0-.16,11.52h9.91a2.79,2.79,0,0,0,.93-.19,2.16,2.16,0,0,0,.77-.49,2.05,2.05,0,0,0,.44-.67,2.54,2.54,0,0,0,.16-.92,1.29,1.29,0,0,0-.07-.49,1,1,0,0,0-.18-.28,1.76,1.76,0,0,0-.43-.31,8.55,8.55,0,0,0-.86-.38c-.35-.13-.71-.25-1.07-.36a13.26,13.26,0,0,1-1.3-.44,9.61,9.61,0,0,1-1.34-.61,5.8,5.8,0,0,1-1.36-1,5,5,0,0,1-1-1.57,5.25,5.25,0,0,1-.37-2,4.49,4.49,0,0,1,0-.64,5.17,5.17,0,0,1,.38-1.5,5.44,5.44,0,0,1,1.24-1.84,5.82,5.82,0,0,1,1.93-1.24,6.8,6.8,0,0,1,2.48-.44,7,7,0,0,1,2.73.51,6.63,6.63,0,0,1,1.28.74l.18.13.27.22c.22.18.42.38.62.58l1.31,1.33-1.89,1.85a1.25,1.25,0,0,1-1.77,0l-.43-.43a5.28,5.28,0,0,0-.77-.66,1.3,1.3,0,0,0-.31-.16,3.1,3.1,0,0,0-1.22-.21,2.75,2.75,0,0,0-1,.17,1.8,1.8,0,0,0-.65.4,1.56,1.56,0,0,0-.36.53,1.75,1.75,0,0,0-.13.68,1.56,1.56,0,0,0,.08.57,1.23,1.23,0,0,0,.21.34,1.67,1.67,0,0,0,.42.32c.26.14.55.27.84.39s.71.25,1.06.35.87.28,1.29.43a10.71,10.71,0,0,1,1.32.59,5.84,5.84,0,0,1,1.35,1A4.75,4.75,0,0,1,132.39,41.41Z"/><polygon class="b" points="40 40 40 40 40 40 40 40"/><polygon class="b" points="40 40 40 40 40 40 40 40"/><path class="c" d="M40,20.13V17.5a22.44,22.44,0,0,0-15.91,6.59L26,26A19.8,19.8,0,0,1,40,20.13Z"/><path class="d" d="M26,26h0l-1.86-1.86A22.44,22.44,0,0,0,17.5,40h2.63A19.8,19.8,0,0,1,26,26Z"/><path class="e" d="M20.13,40H17.5a22.44,22.44,0,0,0,6.59,15.91L26,54.05A19.8,19.8,0,0,1,20.13,40Z"/><path class="f" d="M26,54.05h0l-1.86,1.86A22.44,22.44,0,0,0,40,62.5V59.87A19.8,19.8,0,0,1,26,54.05Z"/><path class="g" d="M54.05,54.05a19.8,19.8,0,0,1-14,5.82V62.5a22.44,22.44,0,0,0,15.91-6.59l-1.86-1.86Z"/><path class="h" d="M59.87,40a19.8,19.8,0,0,1-5.82,14l1.86,1.86A22.44,22.44,0,0,0,62.5,40Z"/><path class="i" d="M54.05,26A19.8,19.8,0,0,1,59.87,40H62.5a22.44,22.44,0,0,0-6.59-15.91L54.05,26Z"/><path class="j" d="M54,26l1.88-1.88A22.44,22.44,0,0,0,40,17.5v2.65A19.75,19.75,0,0,1,54,26Z"/><path class="b" d="M52.39,41.41a5.14,5.14,0,0,1,.38,2,6.39,6.39,0,0,1-.41,2.27.14.14,0,0,0,0,.06,5.84,5.84,0,0,1-1.31,2,6.08,6.08,0,0,1-2,1.34,6.87,6.87,0,0,1-2.62.48H36.78a9.65,9.65,0,1,1,.09-19.29h1.87l0,2.65a1.25,1.25,0,0,1-1.26,1.24h-.61a5.76,5.76,0,0,0-.16,11.52h9.91a2.79,2.79,0,0,0,.93-.19,2.16,2.16,0,0,0,.77-.49,2.05,2.05,0,0,0,.44-.67,2.54,2.54,0,0,0,.16-.92,1.29,1.29,0,0,0-.07-.49,1,1,0,0,0-.18-.28,1.76,1.76,0,0,0-.43-.31,8.55,8.55,0,0,0-.86-.38c-.35-.13-.71-.25-1.07-.36a13.26,13.26,0,0,1-1.3-.44,9.61,9.61,0,0,1-1.34-.61,5.8,5.8,0,0,1-1.36-1,5,5,0,0,1-1-1.57,5.25,5.25,0,0,1-.37-2,4.49,4.49,0,0,1,0-.64,5.17,5.17,0,0,1,.38-1.5,5.44,5.44,0,0,1,1.24-1.84A5.82,5.82,0,0,1,44.5,30.7,6.8,6.8,0,0,1,47,30.26a7,7,0,0,1,2.73.51,6.63,6.63,0,0,1,1.28.74l.18.13.27.22c.22.18.42.38.62.58l1.31,1.33-1.89,1.85a1.25,1.25,0,0,1-1.77,0l-.43-.43a5.28,5.28,0,0,0-.77-.66,1.3,1.3,0,0,0-.31-.16A3.1,3.1,0,0,0,47,34.14a2.75,2.75,0,0,0-1,.17,1.8,1.8,0,0,0-.65.4,1.56,1.56,0,0,0-.36.53,1.75,1.75,0,0,0-.13.68,1.56,1.56,0,0,0,.08.57,1.23,1.23,0,0,0,.21.34,1.67,1.67,0,0,0,.42.32c.26.14.55.27.84.39s.71.25,1.06.35.87.28,1.29.43a10.71,10.71,0,0,1,1.32.59,5.84,5.84,0,0,1,1.35,1A4.75,4.75,0,0,1,52.39,41.41Z"/></svg>
