<?xml version="1.0" encoding="UTF-8"?>
<svg width="97px" height="98px" viewBox="0 0 97 98" version="1.1" xmlns="http://www.w3.org/2000/svg" xmlns:xlink="http://www.w3.org/1999/xlink">
    <!-- Generator: sketchtool 55.2 (78181) - https://sketchapp.com -->
    <title>579718CE-AF45-46FB-8CE7-A17476E1642E</title>
    <desc>Created with sketchtool.</desc>
    <defs>
        <polygon id="path-1" points="0.272202999 0.272143774 0.816608997 0.272143774 0.816608997 0.816431322 0.272202999 0.816431322"></polygon>
        <polygon id="path-3" points="0.272202999 0.272143774 0.816608997 0.272143774 0.816608997 0.816431322 0.272202999 0.816431322"></polygon>
        <polygon id="path-5" points="0 0.0467115343 15.0861003 0.0467115343 15.0861003 28.4173117 0 28.4173117"></polygon>
        <polygon id="path-7" points="0 0.0954544286 15.0851367 0.0954544286 15.0851367 28.4671239 0 28.4671239"></polygon>
        <polygon id="path-9" points="0.0217179101 0.0216971158 28.3984922 0.0216971158 28.3984922 15.1039793 0.0217179101 15.1039793"></polygon>
        <path d="M6.31319615,4.21731381 C6.32619295,4.11334306 6.33594055,4.0093723 6.33594055,3.89890337 C6.33594055,3.78843444 6.32619295,3.68446368 6.31319615,3.58049293 L6.99877742,3.04439371 C7.06051222,2.99565742 7.07675822,2.9079321 7.03776782,2.8364522 L6.38792776,1.7122684 C6.34893735,1.6407885 6.26120894,1.61479581 6.18972654,1.6407885 L5.38067566,1.96569712 C5.21171724,1.83573367 5.02976202,1.72851383 4.8315608,1.64728667 L4.70809119,0.786278846 C4.69834359,0.708300779 4.63011038,0.649817228 4.54888037,0.649817228 L3.24920025,0.649817228 C3.16797024,0.649817228 3.09973703,0.708300779 3.08998943,0.786278846 L2.96651982,1.64728667 C2.7683186,1.72851383 2.58636338,1.83898276 2.41740497,1.96569712 L1.60835409,1.6407885 C1.53362248,1.61154673 1.44914327,1.6407885 1.41015287,1.7122684 L0.760312803,2.8364522 C0.718073199,2.9079321 0.7375684,2.99565742 0.799303207,3.04439371 L1.48488447,3.58049293 C1.47188767,3.68446368 1.46214007,3.79168353 1.46214007,3.89890337 C1.46214007,4.00612321 1.47188767,4.11334306 1.48488447,4.21731381 L0.799303207,4.75341303 C0.7375684,4.80214932 0.721322399,4.88987464 0.760312803,4.96135454 L1.41015287,6.08553834 C1.44914327,6.15701824 1.53687168,6.18301093 1.60835409,6.15701824 L2.41740497,5.83210962 C2.58636338,5.96207307 2.7683186,6.06929291 2.96651982,6.15052007 L3.08998943,7.01152789 C3.09973703,7.08950596 3.16797024,7.14798951 3.24920025,7.14798951 L4.54888037,7.14798951 C4.63011038,7.14798951 4.69834359,7.08950596 4.70809119,7.01152789 L4.8315608,6.15052007 C5.02976202,6.06929291 5.21171724,5.95882398 5.38067566,5.83210962 L6.18972654,6.15701824 C6.26445814,6.18626001 6.34893735,6.15701824 6.38792776,6.08553834 L7.03776782,4.96135454 C7.07675822,4.88987464 7.06051222,4.80214932 6.99877742,4.75341303 L6.31319615,4.21731381 L6.31319615,4.21731381 Z M3.89904014,5.03608352 C3.27194451,5.03608352 2.76182008,4.525977 2.76182008,3.89890337 C2.76182008,3.27182974 3.27194451,2.76172322 3.89904014,2.76172322 C4.52613578,2.76172322 5.03626021,3.27182974 5.03626021,3.89890337 C5.03626021,4.525977 4.52613578,5.03608352 3.89904014,5.03608352 L3.89904014,5.03608352 Z" id="path-11"></path>
    </defs>
    <g id="Stylesheet" stroke="none" stroke-width="1" fill="none" fill-rule="evenodd">
        <g id="Icons" transform="translate(-482.000000, -267.000000)">
            <g id="Illustratie-Essential" transform="translate(475.000000, 266.000000)">
                <g id="Group-34" transform="translate(13.882353, 8.164313)">
                    <path d="M77.2480698,44.7676508 C77.2480698,62.6535706 62.7448357,77.1527599 44.8559129,77.1527599 C26.9661008,77.1527599 12.4637561,62.6535706 12.4637561,44.7676508 C12.4637561,26.8817311 26.9661008,12.3825417 44.8559129,12.3825417 C62.7448357,12.3825417 77.2480698,26.8817311 77.2480698,44.7676508" id="Fill-1" fill="#213A8F"></path>
                    <path d="M89.6333067,44.7676508 C89.6333067,69.4923046 69.5847185,89.5353017 44.8559134,89.5353017 C20.125879,89.5353017 0.0785200952,69.4923046 0.0785200952,44.7676508 C0.0785200952,20.0429971 20.125879,0 44.8559134,0 C69.5847185,0 89.6333067,20.0429971 89.6333067,44.7676508" id="Fill-1" stroke="#213A8F"></path>
                    <g id="Group-5" transform="translate(4.433768, 84.092426)">
                        <mask id="mask-2" fill="white">
                            <use xlink:href="#path-1"></use>
                        </mask>
                        <g id="Clip-4"></g>
                        <path d="" id="Fill-3" fill="#213A8F" mask="url(#mask-2)"></path>
                    </g>
                    <g id="Group-8" transform="translate(4.433768, 84.092426)">
                        <mask id="mask-4" fill="white">
                            <use xlink:href="#path-3"></use>
                        </mask>
                        <g id="Clip-7"></g>
                        <path d="" id="Fill-6" fill="#213A8F" mask="url(#mask-4)"></path>
                    </g>
                    <g id="Group-13" transform="translate(4.705971, 16.464698)">
                        <mask id="mask-6" fill="white">
                            <use xlink:href="#path-5"></use>
                        </mask>
                        <g id="Clip-12"></g>
                    </g>
                    <g id="Group-16" transform="translate(4.705971, 44.631579)">
                        <mask id="mask-8" fill="white">
                            <use xlink:href="#path-7"></use>
                        </mask>
                        <g id="Clip-15"></g>
                    </g>
                    <g id="Group-22" transform="translate(44.719814, 69.804878)">
                        <mask id="mask-10" fill="white">
                            <use xlink:href="#path-9"></use>
                        </mask>
                        <g id="Clip-21"></g>
                    </g>
                </g>
                <g id="Icon/Rapportage-Copy-3" transform="translate(51.854671, 1.905006)">
                    <g id="Icon/Rapportage">
                        <ellipse id="Oval" fill="#E5332A" cx="6.87312555" cy="6.87163019" rx="6.87312555" ry="6.87163019"></ellipse>
                        <g id="Icons/Rapportage" transform="translate(2.988315, 3.286432)" fill="#FFFFFF">
                            <polygon id="Fill-1" points="0 0 0 6.94181601 7.79808044 6.94181601 7.79808044 6.17035335 1.34892959 6.17035335 3.2089034 2.9888 5.74708967 4.435124 7.78649678 0.944895732 7.11191841 0.559164403 5.45886073 3.3859887 2.92430856 1.92820734 0.779967036 5.60759448 0.779967036 0"></polygon>
                        </g>
                    </g>
                </g>
                <g id="Icon/Rapportage-Copy-3" transform="translate(18.237601, 15.648267)" fill-rule="nonzero">
                    <g id="Icon/ContactManagement">
                        <ellipse id="Oval" fill="#3AA935" cx="6.87312555" cy="6.87163019" rx="6.87312555" ry="6.87163019"></ellipse>
                        <g id="directions-fork" transform="translate(3.287147, 3.286432)" fill="#FFFFFF">
                            <path d="M0,0 L0,3.58519836 L1.19532621,2.31983423 L2.39065242,3.79609238 C2.78909449,4.21788042 2.78909449,4.63966847 2.78909449,4.63966847 L2.78909449,7.17039672 L4.38286277,7.17039672 L4.38286277,4.21788042 C4.38286277,4.21788042 4.38286277,3.79609238 4.17168847,3.37430434 C3.96051417,2.9525163 3.58597863,2.53072825 3.58597863,2.53072825 L2.39065242,1.08821315 L3.38675759,0 M5.97663091,0 L4.19957931,1.88539251 L4.38286266,2.10894017 C4.38286266,2.10894017 4.75341378,2.5307282 4.96857249,2.95251624 C5.05224532,3.12123145 5.10005837,3.28572878 5.12794932,3.42913672 L7.1719571,1.2653641" id="Shape"></path>
                        </g>
                    </g>
                </g>
                <g id="Icon/Rapportage-Copy-4" transform="translate(7.077278, 46.128370)" fill-rule="nonzero">
                    <g id="Icon/ContactManagement">
                        <ellipse id="Oval" fill="#213A8F" cx="6.87312555" cy="6.87163019" rx="6.87312555" ry="6.87163019"></ellipse>
                        <polygon id="Path" fill="#FFFFFF" points="6.15592984 10.158062 6.15592984 7.62733377 7.59032126 7.62733377 7.59032126 10.158062 9.38331054 10.158062 9.38331054 6.78375768 10.4591041 6.78375768 6.87312555 2.9876653 3.287147 6.78375768 4.36294057 6.78375768 4.36294057 10.158062"></polygon>
                    </g>
                </g>
                <g id="Icon/Rapportage-Copy-3" transform="translate(85.471742, 15.648267)">
                    <g id="Icon/Rapportage">
                        <ellipse id="Oval" fill="#B18778" cx="6.87312555" cy="6.87163019" rx="6.87312555" ry="6.87163019"></ellipse>
                        <g id="Icons/Rapportage" transform="translate(2.988315, 2.987665)">
                            <polygon id="Base" points="-1.62459953e-08 -1.62454067e-08 7.79808043 -1.62454067e-08 7.79808043 7.79780672 -1.62459953e-08 7.79780672"></polygon>
                            <mask id="mask-12" fill="white">
                                <use xlink:href="#path-11"></use>
                            </mask>
                            <g id="Icon" fill-rule="nonzero"></g>
                            <rect id="↳-🎨-Color" fill="#FFFFFF" mask="url(#mask-12)" x="0" y="0" width="7.79808044" height="7.79780674"></rect>
                        </g>
                    </g>
                </g>
                <g id="Numbers" transform="translate(45.097125, 33.337612)" fill="#FFFFFF" fill-rule="nonzero">
                    <path d="M4.64797427,5.85109114 C6.24762056,5.85109114 7.57415651,4.52484382 7.57415651,2.92554557 C7.57415651,1.32624733 6.24762056,0 4.64797427,0 C3.04832798,0 1.72179204,1.32624733 1.72179204,2.92554557 C1.72179204,4.52484382 3.04832798,5.85109114 4.64797427,5.85109114 Z M4.64797427,1.17021828 C5.62336832,1.17021828 6.40368356,1.95036374 6.40368356,2.92554557 C6.40368356,3.9007274 5.62336832,4.68087286 4.64797427,4.68087286 C3.67258022,4.68087286 2.89226498,3.9007274 2.89226498,2.92554557 C2.89226498,1.95036374 3.71159599,1.17021828 4.64797427,1.17021828 Z" id="Shape"></path>
                    <path d="M8.66296864,2.92554557 C8.66296864,4.52484382 9.98950458,5.85109114 11.5891509,5.85109114 C13.1887972,5.85109114 14.5153331,4.52484382 14.5153331,2.92554557 C14.5153331,1.32624733 13.1887972,0 11.5891509,0 C9.98950458,0 8.66296864,1.32624733 8.66296864,2.92554557 Z M11.5891509,4.68087286 C10.6137568,4.68087286 9.83344158,3.9007274 9.83344158,2.92554557 C9.83344158,1.95036374 10.6527726,1.17021828 11.5891509,1.17021828 C12.5255292,1.17021828 13.3448602,1.95036374 13.3448602,2.92554557 C13.3448602,3.9007274 12.5645449,4.68087286 11.5891509,4.68087286 Z" id="Shape"></path>
                    <path d="M18.9386318,0 C17.3389856,0 16.0124496,1.32624733 16.0124496,2.92554557 C16.0124496,4.52484382 17.3389856,5.85109114 18.9386318,5.85109114 C20.5382781,5.85109114 21.8648141,4.52484382 21.8648141,2.92554557 C21.8648141,1.32624733 20.5772939,0 18.9386318,0 Z M18.9386318,4.68087286 C17.9632378,4.68087286 17.1829226,3.9007274 17.1829226,2.92554557 C17.1829226,1.95036374 18.0022536,1.17021828 18.9386318,1.17021828 C19.9140259,1.17021828 20.6943411,1.95036374 20.6943411,2.92554557 C20.6943411,3.9007274 19.9140259,4.68087286 18.9386318,4.68087286 Z" id="Shape"></path>
                    <path d="M4.64797427,13.0629012 C6.24762056,13.0629012 7.57415651,11.7366538 7.57415651,10.1373556 C7.57415651,8.53805734 6.24762056,7.21181001 4.64797427,7.21181001 C3.04832798,7.21181001 1.72179204,8.53805734 1.72179204,10.1373556 C1.72179204,11.7366538 3.04832798,13.0629012 4.64797427,13.0629012 Z M4.64797427,8.38202829 C5.62336832,8.38202829 6.40368356,9.16217376 6.40368356,10.1373556 C6.40368356,11.1125374 5.62336832,11.8926829 4.64797427,11.8926829 C3.67258022,11.8926829 2.89226498,11.1125374 2.89226498,10.1373556 C2.89226498,9.16217376 3.71159599,8.38202829 4.64797427,8.38202829 Z" id="Shape"></path>
                    <path d="M18.9386318,7.21181001 C17.3389856,7.21181001 16.0124496,8.53805734 16.0124496,10.1373556 C16.0124496,11.7366538 17.3389856,13.0629012 18.9386318,13.0629012 C20.5382781,13.0629012 21.8648141,11.7366538 21.8648141,10.1373556 C21.8648141,8.53805734 20.5772939,7.21181001 18.9386318,7.21181001 Z M18.9386318,11.8926829 C17.9632378,11.8926829 17.1829226,11.1125374 17.1829226,10.1373556 C17.1829226,9.16217376 17.9632378,8.38202829 18.9386318,8.38202829 C19.9140259,8.38202829 20.6943411,9.16217376 20.6943411,10.1373556 C20.6943411,11.1125374 19.9140259,11.8926829 18.9386318,11.8926829 Z" id="Shape"></path>
                    <path d="M4.64797427,20.1386393 C6.24762056,20.1386393 7.57415651,18.812392 7.57415651,17.2130937 C7.57415651,15.6137955 6.24762056,14.2875481 4.64797427,14.2875481 C3.04832798,14.2875481 1.72179204,15.6137955 1.72179204,17.2130937 C1.72179204,18.812392 3.04832798,20.1386393 4.64797427,20.1386393 Z M4.64797427,15.4577664 C5.62336832,15.4577664 6.40368356,16.2379119 6.40368356,17.2130937 C6.40368356,18.1882755 5.62336832,18.968421 4.64797427,18.968421 C3.67258022,18.968421 2.89226498,18.1882755 2.89226498,17.2130937 C2.89226498,16.2379119 3.71159599,15.4577664 4.64797427,15.4577664 Z" id="Shape"></path>
                    <path d="M23.6617909,33.2523011 L23.5035814,33.2523011 L23.5035814,32.6979769 L23.7804481,31.5893286 C24.4528385,29.2136536 24.7692575,26.7587894 24.7692575,24.3435198 L24.7692575,21.1759532 L24.7692575,21.1759532 L24.7692575,18.4835215 C24.7692575,17.2164948 23.8200005,16.1078465 22.5938768,16.0286573 C22.0401435,15.9890628 21.5259626,16.1474411 21.0908864,16.4246032 C20.7744674,15.5931169 20.0229722,14.9596036 19.1132675,14.8804144 C18.4408771,14.8012253 17.7684867,15.0387928 17.2938582,15.4743332 C17.2147534,15.5139278 17.175201,15.5931169 17.1356487,15.6327115 C16.7401249,15.1575765 16.1863916,14.8408198 15.593106,14.8012253 C15.078925,14.7616307 14.5647441,14.8804144 14.0901156,15.1179819 L14.0901156,10.1290644 C14.0901156,8.94122694 13.2990681,7.91176777 12.1916015,7.67420027 C11.4796587,7.51582194 10.7677159,7.71379486 10.1744302,8.14933527 C9.62069696,8.58487569 9.30427794,9.2579836 9.30427794,10.0102807 L9.30427794,23.8287903 C9.30427794,23.9871686 9.18562081,24.3435198 9.0274113,24.4623036 L8.39457326,25.0562223 L5.07217355,21.8886557 C3.92515461,20.8196019 2.18485,20.7800073 1.03783105,21.8094665 L0.444545391,22.3241961 C0.207231127,22.5617636 0.0885739945,22.8389257 0.0885739945,23.1952769 C0.0885739945,23.5120336 0.207231127,23.8287903 0.444545391,24.0663578 L9.5415922,33.1731119 L9.42293507,33.1731119 C8.43412563,33.1731119 7.64307809,33.9650036 7.64307809,34.9548682 L7.64307809,37.9640565 L8.23636375,37.9640565 L8.82964941,37.9640565 L8.82964941,35.0340573 C8.82964941,34.7173007 9.10651605,34.4401386 9.42293507,34.4401386 L9.77890647,34.4401386 L10.3721921,34.4401386 L10.9654778,34.4401386 L22.2774577,34.4401386 L22.8707434,34.4401386 L23.4640291,34.4401386 L23.6222386,34.4401386 C23.9386576,34.4401386 24.2155242,34.7173007 24.2155242,35.0340573 L24.2155242,37.9640565 L24.8088099,37.9640565 L25.4020956,37.9640565 L25.4020956,35.0340573 C25.4416479,34.0441927 24.611048,33.2523011 23.6617909,33.2523011 Z M1.23559297,23.2744662 L1.82887863,22.7597367 C2.54082143,22.1262233 3.56918324,22.1658179 4.28112603,22.7993312 L7.56397336,25.9273033 C8.03860189,26.4024384 8.79009706,26.4024384 9.26472559,25.9273033 L9.85801125,25.3333846 C10.2139826,24.9770333 10.4512969,24.3831146 10.4512969,23.868385 L10.4512969,10.0498753 C10.4512969,9.69352406 10.6095064,9.33717281 10.8863731,9.13919989 C11.1632397,8.90163239 11.5192111,8.82244322 11.9147349,8.90163239 C12.4684682,9.02041614 12.9035443,9.57474031 12.9035443,10.1686591 L12.9035443,16.9393329 L12.9035443,16.9393329 L12.9035443,20.7008183 L14.0901156,20.7008183 L14.0901156,17.1769004 L14.0901156,17.1769004 C14.0901156,16.8601437 14.2483251,16.543387 14.4856394,16.3058195 C14.762506,16.068252 15.1184774,15.9494683 15.4744488,15.9890629 C16.0677345,16.0286574 16.542363,16.5829816 16.542363,17.2560895 L16.542363,20.7008183 L17.7289344,20.7008183 L17.7289344,17.2560895 L17.7289344,17.216495 C17.7289344,16.8997383 17.8871439,16.543387 18.1244581,16.3454141 C18.3617724,16.1078466 18.7177438,16.0286574 19.0341628,16.0286574 C19.6274485,16.068252 20.102077,16.6225762 20.102077,17.2956841 L20.102077,18.166765 C20.102077,18.2459541 20.102077,18.2855487 20.102077,18.3647379 L20.102077,20.7404129 L21.2886483,20.7404129 L21.2886483,18.2459541 C21.3677531,17.6124408 21.881934,17.1373058 22.514772,17.1769004 C23.1080577,17.216495 23.5826862,17.7708191 23.5826862,18.443927 L23.5826862,22.0074396 L23.5826862,22.0074396 L23.5826862,24.3039254 C23.5826862,26.6004113 23.2662672,28.9364917 22.6334292,31.2329776 L22.3170101,32.4208151 L22.3170101,33.2127067 L10.9654778,33.2127067 L10.9654778,32.9751392 L1.23559297,23.2744662 Z" id="Shape"></path>
                </g>
                <ellipse id="Oval" fill-opacity="0.2" fill="#FFFFFF" cx="56.7543253" cy="43.4749679" rx="4.42329873" ry="4.42233633"></ellipse>
                <rect id="Rectangle" fill-opacity="0.2" fill="#FFFFFF" x="53.6369538" y="67.3555841" width="15.8050566" height="6.12323492" rx="3.06161746"></rect>
            </g>
        </g>
    </g>
</svg>