<?xml version="1.0" encoding="UTF-8"?>
<svg width="104px" height="98px" viewBox="0 0 104 98" version="1.1" xmlns="http://www.w3.org/2000/svg" xmlns:xlink="http://www.w3.org/1999/xlink">
    <!-- Generator: sketchtool 55.2 (78181) - https://sketchapp.com -->
    <title>B33C248E-CA62-49C2-9DFF-3BC6B85EA81C</title>
    <desc>Created with sketchtool.</desc>
    <defs>
        <polygon id="path-1" points="0.272202999 0.272143774 0.816608997 0.272143774 0.816608997 0.816431322 0.272202999 0.816431322"></polygon>
        <polygon id="path-3" points="0.272202999 0.272143774 0.816608997 0.272143774 0.816608997 0.816431322 0.272202999 0.816431322"></polygon>
        <polygon id="path-5" points="0 0.0467115343 15.0861003 0.0467115343 15.0861003 28.4173117 0 28.4173117"></polygon>
        <polygon id="path-7" points="0 0.0954544286 15.0851367 0.0954544286 15.0851367 28.4671239 0 28.4671239"></polygon>
        <polygon id="path-9" points="0.0217179101 0.0216971158 28.3984922 0.0216971158 28.3984922 15.1039793 0.0217179101 15.1039793"></polygon>
        <path d="M4.48247337,0.373458125 C2.62598232,0.373458125 1.12061834,1.87849446 1.12061834,3.73458145 L1.12061834,6.34878848 C1.12061834,6.968729 1.6211612,7.46916292 2.24123669,7.46916292 L3.36185503,7.46916292 L3.36185503,4.48149774 L1.86769724,4.48149774 L1.86769724,3.73458145 C1.86769724,2.28929842 3.03687571,1.12037442 4.48247337,1.12037442 C5.92807104,1.12037442 7.09724951,2.28929842 7.09724951,3.73458145 L7.09724951,4.48149774 L5.60309172,4.48149774 L5.60309172,7.46916292 L7.09724951,7.46916292 L7.09724951,7.84262107 L4.48247337,7.84262107 L4.48247337,8.58953736 L6.72371006,8.58953736 C7.34378554,8.58953736 7.8443284,8.08910344 7.8443284,7.46916292 L7.8443284,3.73458145 C7.8443284,1.87849446 6.33896443,0.373458125 4.48247337,0.373458125 L4.48247337,0.373458125 Z" id="path-11"></path>
        <path d="M6.31319615,4.21731381 C6.32619295,4.11334306 6.33594055,4.0093723 6.33594055,3.89890337 C6.33594055,3.78843444 6.32619295,3.68446368 6.31319615,3.58049293 L6.99877742,3.04439371 C7.06051222,2.99565742 7.07675822,2.9079321 7.03776782,2.8364522 L6.38792776,1.7122684 C6.34893735,1.6407885 6.26120894,1.61479581 6.18972654,1.6407885 L5.38067566,1.96569712 C5.21171724,1.83573367 5.02976202,1.72851383 4.8315608,1.64728667 L4.70809119,0.786278846 C4.69834359,0.708300779 4.63011038,0.649817228 4.54888037,0.649817228 L3.24920025,0.649817228 C3.16797024,0.649817228 3.09973703,0.708300779 3.08998943,0.786278846 L2.96651982,1.64728667 C2.7683186,1.72851383 2.58636338,1.83898276 2.41740497,1.96569712 L1.60835409,1.6407885 C1.53362248,1.61154673 1.44914327,1.6407885 1.41015287,1.7122684 L0.760312803,2.8364522 C0.718073199,2.9079321 0.7375684,2.99565742 0.799303207,3.04439371 L1.48488447,3.58049293 C1.47188767,3.68446368 1.46214007,3.79168353 1.46214007,3.89890337 C1.46214007,4.00612321 1.47188767,4.11334306 1.48488447,4.21731381 L0.799303207,4.75341303 C0.7375684,4.80214932 0.721322399,4.88987464 0.760312803,4.96135454 L1.41015287,6.08553834 C1.44914327,6.15701824 1.53687168,6.18301093 1.60835409,6.15701824 L2.41740497,5.83210962 C2.58636338,5.96207307 2.7683186,6.06929291 2.96651982,6.15052007 L3.08998943,7.01152789 C3.09973703,7.08950596 3.16797024,7.14798951 3.24920025,7.14798951 L4.54888037,7.14798951 C4.63011038,7.14798951 4.69834359,7.08950596 4.70809119,7.01152789 L4.8315608,6.15052007 C5.02976202,6.06929291 5.21171724,5.95882398 5.38067566,5.83210962 L6.18972654,6.15701824 C6.26445814,6.18626001 6.34893735,6.15701824 6.38792776,6.08553834 L7.03776782,4.96135454 C7.07675822,4.88987464 7.06051222,4.80214932 6.99877742,4.75341303 L6.31319615,4.21731381 L6.31319615,4.21731381 Z M3.89904014,5.03608352 C3.27194451,5.03608352 2.76182008,4.525977 2.76182008,3.89890337 C2.76182008,3.27182974 3.27194451,2.76172322 3.89904014,2.76172322 C4.52613578,2.76172322 5.03626021,3.27182974 5.03626021,3.89890337 C5.03626021,4.525977 4.52613578,5.03608352 3.89904014,5.03608352 L3.89904014,5.03608352 Z" id="path-13"></path>
        <path d="M6.94514618,11.317496 C8.45587284,14.2858476 10.8898214,16.7087777 13.8588189,18.2296646 L16.1668735,15.9221121 C16.4501348,15.6389125 16.8697811,15.5445126 17.2369716,15.6703791 C18.4119812,16.0584675 19.6814112,16.268245 20.9823147,16.268245 C21.5593284,16.268245 22.0314305,16.7402444 22.0314305,17.3171325 L22.0314305,20.9777498 C22.0314305,21.5546379 21.5593284,22.0266373 20.9823147,22.0266373 C11.131118,22.0266373 3.14734721,14.0446035 3.14734721,4.19554996 C3.14734721,3.61866184 3.61944929,3.14666247 4.19646295,3.14666247 L7.86836803,3.14666247 C8.44538169,3.14666247 8.91748377,3.61866184 8.91748377,4.19554996 C8.91748377,5.50665933 9.12730691,6.76532432 9.51547974,7.94007831 C9.63088247,8.30718893 9.54695321,8.71625505 9.2532008,9.00994355 L6.94514618,11.317496 L6.94514618,11.317496 Z" id="path-15"></path>
    </defs>
    <g id="Stylesheet" stroke="none" stroke-width="1" fill="none" fill-rule="evenodd">
        <g id="Icons" transform="translate(-482.000000, -387.000000)">
            <g id="Illustratie-Essential-Copy" transform="translate(475.000000, 386.000000)">
                <g id="Group-34" transform="translate(19.462514, 12.790757)">
                    <path d="M72.8928223,40.1412067 C72.8928223,58.0271264 58.3895883,72.5263158 40.5006655,72.5263158 C22.6108533,72.5263158 8.1085086,58.0271264 8.1085086,40.1412067 C8.1085086,22.2552869 22.6108533,7.75609756 40.5006655,7.75609756 C58.3895883,7.75609756 72.8928223,22.2552869 72.8928223,40.1412067" id="Fill-1" fill="#213A8F"></path>
                    <g id="Group-5" transform="translate(0.078520, 79.465982)">
                        <mask id="mask-2" fill="white">
                            <use xlink:href="#path-1"></use>
                        </mask>
                        <g id="Clip-4"></g>
                        <path d="" id="Fill-3" fill="#213A8F" mask="url(#mask-2)"></path>
                    </g>
                    <g id="Group-8" transform="translate(0.078520, 79.465982)">
                        <mask id="mask-4" fill="white">
                            <use xlink:href="#path-3"></use>
                        </mask>
                        <g id="Clip-7"></g>
                        <path d="" id="Fill-6" fill="#213A8F" mask="url(#mask-4)"></path>
                    </g>
                    <g id="Group-13" transform="translate(0.350723, 11.838254)">
                        <mask id="mask-6" fill="white">
                            <use xlink:href="#path-5"></use>
                        </mask>
                        <g id="Clip-12"></g>
                    </g>
                    <g id="Group-16" transform="translate(0.350723, 40.005135)">
                        <mask id="mask-8" fill="white">
                            <use xlink:href="#path-7"></use>
                        </mask>
                        <g id="Clip-15"></g>
                    </g>
                    <g id="Group-22" transform="translate(40.364566, 65.178434)">
                        <mask id="mask-10" fill="white">
                            <use xlink:href="#path-9"></use>
                        </mask>
                        <g id="Clip-21"></g>
                    </g>
                </g>
                <path d="M103.515659,52.9319641 C103.515659,77.6566178 83.4670709,97.6996149 58.7382659,97.6996149 C34.0082314,97.6996149 13.9608726,77.6566178 13.9608726,52.9319641 C13.9608726,28.2073103 34.0082314,8.16431322 58.7382659,8.16431322 C83.4670709,8.16431322 103.515659,28.2073103 103.515659,52.9319641" id="Fill-1" stroke="#213A8F"></path>
                <g id="Icon/Rapportage-Copy-4" transform="translate(7.077278, 46.128370)" fill-rule="nonzero">
                    <g id="Icon/ContactManagement">
                        <ellipse id="Oval" fill="#213A8F" cx="6.87312555" cy="6.87163019" rx="6.87312555" ry="6.87163019"></ellipse>
                        <polygon id="Path" fill="#FFFFFF" points="6.15592984 10.158062 6.15592984 7.62733377 7.59032126 7.62733377 7.59032126 10.158062 9.38331054 10.158062 9.38331054 6.78375768 10.4591041 6.78375768 6.87312555 2.9876653 3.287147 6.78375768 4.36294057 6.78375768 4.36294057 10.158062"></polygon>
                    </g>
                </g>
                <g id="Icon/Rapportage-Copy-4" transform="translate(96.632065, 46.128370)">
                    <g id="Icon/Interactie">
                        <ellipse id="Oval" fill="#F29100" cx="6.87312555" cy="6.87163019" rx="6.87312555" ry="6.87163019"></ellipse>
                        <g id="headset_mic" transform="translate(2.390652, 2.390132)">
                            <polygon id="Base" opacity="0.1" points="-1.86769726e-08 -1.86728797e-08 8.96494673 -1.86728797e-08 8.96494673 8.96299551 -1.86769726e-08 8.96299551"></polygon>
                            <mask id="mask-12" fill="white">
                                <use xlink:href="#path-11"></use>
                            </mask>
                            <g id="Icon" opacity="0.1"></g>
                            <rect id="↳-🎨-Color" fill="#FFFFFF" mask="url(#mask-12)" x="0" y="0" width="8.96494675" height="8.96299553"></rect>
                        </g>
                    </g>
                </g>
                <g id="Icon/Rapportage-Copy-3" transform="translate(51.854671, 1.905006)">
                    <g id="Icon/Rapportage">
                        <ellipse id="Oval" fill="#E5332A" cx="6.87312555" cy="6.87163019" rx="6.87312555" ry="6.87163019"></ellipse>
                        <g id="Icons/Rapportage" transform="translate(2.988315, 3.286432)" fill="#FFFFFF">
                            <polygon id="Fill-1" points="0 0 0 6.94181601 7.79808044 6.94181601 7.79808044 6.17035335 1.34892959 6.17035335 3.2089034 2.9888 5.74708967 4.435124 7.78649678 0.944895732 7.11191841 0.559164403 5.45886073 3.3859887 2.92430856 1.92820734 0.779967036 5.60759448 0.779967036 0"></polygon>
                        </g>
                    </g>
                </g>
                <g id="Icon/Rapportage-Copy-3" transform="translate(18.237601, 15.648267)" fill-rule="nonzero">
                    <g id="Icon/ContactManagement">
                        <ellipse id="Oval" fill="#3AA935" cx="6.87312555" cy="6.87163019" rx="6.87312555" ry="6.87163019"></ellipse>
                        <g id="directions-fork" transform="translate(3.287147, 3.286432)" fill="#FFFFFF">
                            <path d="M0,0 L0,3.58519836 L1.19532621,2.31983423 L2.39065242,3.79609238 C2.78909449,4.21788042 2.78909449,4.63966847 2.78909449,4.63966847 L2.78909449,7.17039672 L4.38286277,7.17039672 L4.38286277,4.21788042 C4.38286277,4.21788042 4.38286277,3.79609238 4.17168847,3.37430434 C3.96051417,2.9525163 3.58597863,2.53072825 3.58597863,2.53072825 L2.39065242,1.08821315 L3.38675759,0 M5.97663091,0 L4.19957931,1.88539251 L4.38286266,2.10894017 C4.38286266,2.10894017 4.75341378,2.5307282 4.96857249,2.95251624 C5.05224532,3.12123145 5.10005837,3.28572878 5.12794932,3.42913672 L7.1719571,1.2653641" id="Shape"></path>
                        </g>
                    </g>
                </g>
                <g id="Icon/Rapportage-Copy-3" transform="translate(85.471742, 15.648267)">
                    <g id="Icon/Rapportage">
                        <ellipse id="Oval" fill="#B18778" cx="6.87312555" cy="6.87163019" rx="6.87312555" ry="6.87163019"></ellipse>
                        <g id="Icons/Rapportage" transform="translate(2.988315, 2.987665)">
                            <polygon id="Base" points="-1.62459953e-08 -1.62454067e-08 7.79808043 -1.62454067e-08 7.79808043 7.79780672 -1.62459953e-08 7.79780672"></polygon>
                            <mask id="mask-14" fill="white">
                                <use xlink:href="#path-13"></use>
                            </mask>
                            <g id="Icon" fill-rule="nonzero"></g>
                            <rect id="↳-🎨-Color" fill="#FFFFFF" mask="url(#mask-14)" x="0" y="0" width="7.79808044" height="7.79780674"></rect>
                        </g>
                    </g>
                </g>
                <g id="Group" transform="translate(39.741638, 33.609756)">
                    <g id="call" transform="translate(6.328720, 15.376123)">
                        <polygon id="Base" points="-5.24557837e-08 -5.24444162e-08 25.1787776 -5.24444162e-08 25.1787776 25.1732997 -5.24557837e-08 25.1732997"></polygon>
                        <mask id="mask-16" fill="white">
                            <use xlink:href="#path-15"></use>
                        </mask>
                        <g id="Icon"></g>
                        <rect id="↳-🎨-Color" fill="#FFFFFF" mask="url(#mask-16)" x="0" y="0" width="25.1787777" height="25.1732998"></rect>
                    </g>
                    <path d="M33.0633074,13.4282542 C32.0568368,8.32300706 27.5721223,4.49037227 22.1845444,4.49037227 C17.9070444,4.49037227 14.1919839,6.91721438 12.3418541,10.4686906 C7.88674164,10.9422208 4.42329873,14.7156643 4.42329873,19.28819 C4.42329873,24.1862677 8.40477797,28.1668806 13.3039216,28.1668806 L32.545271,28.1668806 C36.6303576,28.1668806 39.9457901,24.8521694 39.9457901,20.7679718 C39.9457901,16.8613479 36.9115773,13.6946149 33.0633074,13.4282542 L33.0633074,13.4282542 Z" id="Path" fill-opacity="0.2" fill="#FFFFFF" fill-rule="nonzero"></path>
                    <path d="M30.4770807,11.5495139 L28.9491849,11.4437595 L28.6529501,9.9411304 C27.7477858,5.34975192 23.7178911,2 18.9861592,2 C15.2734702,2 11.9259231,4.07531995 10.2384084,7.31464315 L9.742786,8.26603117 L8.67605024,8.37941362 C4.89732688,8.78105096 2,11.986628 2,15.8183569 C2,19.9495661 5.3605361,23.309371 9.49307958,23.309371 L30.0614187,23.309371 C33.3237632,23.309371 35.9723183,20.6613921 35.9723183,17.4001926 C35.9723183,14.3057348 33.5730741,11.7638052 30.4770807,11.5495139 Z" id="Path-Copy" stroke="#FFFFFF" stroke-width="4" fill-rule="nonzero"></path>
                </g>
            </g>
        </g>
    </g>
</svg>