<svg xmlns="http://www.w3.org/2000/svg" viewBox="0 0 32 256"><defs><style>.a{fill:#e7352c;}.b{fill:#fbe908;}.c{fill:#1f9dd9;}.d{fill:#3caa49;}.e{fill:#f29220;}.f{fill:#a38a7a;}.g{fill:#662c83;}.h{fill:#e4097e;}</style></defs><title>licentieSprites</title><path class="a" d="M16,1A12.21,12.21,0,0,0,3.73,13.27v9.55a4.09,4.09,0,0,0,4.09,4.09h4.09V16H6.45V13.27a9.55,9.55,0,0,1,19.1,0V16H20.09V26.91h5.46v1.36H16V31h8.18a4.09,4.09,0,0,0,4.09-4.09V13.27A12.24,12.24,0,0,0,16,1Z"/><path class="b" d="M16,33,3.73,38.45v8.19C3.73,54.2,9,61.28,16,63c7-1.72,12.27-8.8,12.27-16.36V38.45L16,33m0,5.45a4.1,4.1,0,1,1-4.09,4.1A4.1,4.1,0,0,1,16,38.45m7,16.37a13.18,13.18,0,0,1-7,5.34,13.18,13.18,0,0,1-7-5.34,14.48,14.48,0,0,1-1.18-2.09c0-2.25,3.69-4.09,8.18-4.09s8.18,1.8,8.18,4.09A14.48,14.48,0,0,1,23,54.82Z"/><path class="c" d="M16.38,73.08H4.08A3.07,3.07,0,0,0,1,76.15v6.16a3.07,3.07,0,0,0,3.08,3.07H5.62v6.16a1.53,1.53,0,0,0,1.53,1.54h3.08a1.54,1.54,0,0,0,1.54-1.54V85.38h4.61l7.7,6.16V66.92l-7.7,6.16M31,79.23a6.78,6.78,0,0,1-3.85,6.15V73.08A6.84,6.84,0,0,1,31,79.23Z"/><path class="d" d="M22.14,120.18H9.86V101.09H22.14M16,125.64a2,2,0,1,1,2.05-2,2.05,2.05,0,0,1-2.05,2M21.45,97H10.55a3.41,3.41,0,0,0-3.41,3.41v23.18A3.41,3.41,0,0,0,10.55,127h10.9a3.41,3.41,0,0,0,3.41-3.41V100.41A3.41,3.41,0,0,0,21.45,97Z"/><path class="e" d="M23,156.67l-3.35-5.8a7.51,7.51,0,0,0,3-5.2h6.71a14.25,14.25,0,0,1-6.36,11m-5.3-20.95V129A14.23,14.23,0,0,1,31,142.33H24.28a7.47,7.47,0,0,0-6.61-6.61m-10,9.11a7.14,7.14,0,0,0,.63,3l-5.8,3.35A14,14,0,0,1,1,144.83a14.19,14.19,0,0,1,13.33-14.16v6.71a7.5,7.5,0,0,0-6.66,7.45M15.17,159a14.09,14.09,0,0,1-11.84-6.37l5.8-3.35a7.47,7.47,0,0,0,6,3.05,7.2,7.2,0,0,0,3-.63l3.35,5.8A14,14,0,0,1,15.17,159Z"/><path class="f" d="M14.5,176H3.25L7,172.25,3.25,168.5H14.5v-6L16,161l1.5,1.5v6H25l3.75,3.75L25,176H17.5v12a3,3,0,0,1,3,3h-9a3,3,0,0,1,3-3Z"/><path class="g" d="M4,199H1v21a3,3,0,0,0,3,3H25v-3H4V199m24-6H10a3,3,0,0,0-3,3v18a3,3,0,0,0,3,3H28a3,3,0,0,0,3-3V196a3,3,0,0,0-3-3M16,211.75v-13.5L25,205Z"/><path class="h" d="M16,235a3.34,3.34,0,1,1,3.33-3.33A3.33,3.33,0,0,1,16,235m0,8.33A3.33,3.33,0,1,1,19.33,240,3.33,3.33,0,0,1,16,243.33m0,8.34a3.34,3.34,0,1,1,3.33-3.34A3.34,3.34,0,0,1,16,251.67m13.33-15h-5v-1.9a6.67,6.67,0,0,0,5-6.44h-5v-1.66A1.66,1.66,0,0,0,22.67,225H9.33a1.66,1.66,0,0,0-1.66,1.67v1.66h-5a6.67,6.67,0,0,0,5,6.44v1.9h-5a6.66,6.66,0,0,0,5,6.43V245h-5a6.66,6.66,0,0,0,5,6.43v1.9A1.66,1.66,0,0,0,9.33,255H22.67a1.66,1.66,0,0,0,1.66-1.67v-1.9a6.66,6.66,0,0,0,5-6.43h-5v-1.9A6.66,6.66,0,0,0,29.33,236.67Z"/></svg>