<svg xmlns="http://www.w3.org/2000/svg" viewBox="0 0 690.66 520.99"><defs><style>.a{fill:#565656;opacity:0.1;}.b{fill:#cdcccc;}.c{fill:#aeaeae;}.d{fill:#4e4e4e;}.e{fill:#e2e2e2;}.f{fill:#d3d4d5;}.g{fill:#191919;}.h{fill:#fff;}.i{fill:#fbe908;}.j{fill:#49beed;}.k{fill:#1f9dd9;}.l{fill:#263e8e;}.m{fill:#d8d8d8;}.n{fill:#999b9f;}.o{fill:#121314;}.p{fill:#818181;}.q{fill:#3caa49;}.r{fill:#662c83;}.s{fill:#b8cacc;}.t{fill:#202020;}.u{fill:#3e4753;}</style></defs><title>Artboard 2</title><ellipse class="a" cx="333.47" cy="435.63" rx="293.88" ry="36.39"/><ellipse class="a" cx="81.57" cy="491.61" rx="75.57" ry="20.99"/><ellipse class="a" cx="576.97" cy="493.01" rx="106.36" ry="20.99"/><path class="b" d="M392.25,339.81c0,26.83,1,36.61,1.37,43.88s1.93,22,2.9,28.6c1.48,9.95-.92,12.5,17.16,14.57,4.45.49,7.8.6,7.8,1.5s.25.24-6.5.24H253.37c-6.75,0-8.93.79-8.93-.24s5.49-1.44,9.94-1.94c18.08-2.06,16-4.25,17.44-14.2,1-6.56,2.51-21.29,2.9-28.56s1.19-17,1.19-43.87Z"/><path class="c" d="M393.45,368c0-6.64.12-15.45.12-28.39l-118.8.09c0,26.83.34,36.66,0,43.93s-1.93,22.06-2.9,28.62c-1.47,9.95.64,12.19-17.44,14.25-4.45.5-9.94.83-9.94,1.83s2.18.24,8.93.24h79.21Z"/><path class="d" d="M420.48,431.23c0,.2-.3.24-.51.24l-173.16,0c-.2,0-1.12-.05-1.12-.25v-.9c0-1.73,174.79-1.74,174.79,0Z"/><rect class="e" x="243.97" y="428.03" width="177.09" height="2.87" rx="0.37"/><path class="f" d="M593.54,351.29c0,9.91-8.57,18.08-18.9,18.08l-483,0c-10.33,0-19-8.17-19-18.08l0-327.49C72.6,13.92,81.27,6,91.6,6l483,0c10.33,0,18.91,7.9,18.91,17.81Z"/><path class="g" d="M593.52,23.8c0-9.91-8.58-17.81-18.91-17.81L91.6,6c-10.33,0-19,7.9-19,17.81l0,297.27,520.92,0Z"/><rect class="h" x="95.03" y="29.58" width="474.92" height="267.94"/><rect class="i" x="418.83" y="88.57" width="19.59" height="188.92"/><rect class="i" x="383.85" y="123.56" width="19.59" height="153.94"/><rect class="i" x="347.46" y="157.14" width="19.59" height="120.35"/><rect class="i" x="311.08" y="194.93" width="19.59" height="82.57"/><rect class="i" x="274.69" y="176.74" width="19.59" height="100.76"/><rect class="i" x="238.31" y="229.91" width="19.59" height="47.58"/><rect class="i" x="203.32" y="214.52" width="19.59" height="62.97"/><rect class="i" x="166.93" y="235.51" width="19.59" height="41.98"/><rect class="i" x="129.93" y="260" width="19.59" height="17.5"/><path class="j" d="M136.15,241.81a2.1,2.1,0,0,1-1.22-3.81l79.39-56.71,33,16.51,39.42-62,35.44,28.35,105-92.6A2.1,2.1,0,0,1,430,74.75L322.34,169.68,287.8,142.05l-38.94,61.2-34.15-17.07-77.34,55.24A2.13,2.13,0,0,1,136.15,241.81Z"/><circle class="k" cx="214.52" cy="183.73" r="8.4"/><circle class="k" cx="136.52" cy="239.73" r="8.4"/><circle class="k" cx="248.1" cy="200.53" r="8.4"/><circle class="k" cx="287.29" cy="140.35" r="8.4"/><circle class="k" cx="322.27" cy="166.94" r="8.4"/><circle class="k" cx="428.63" cy="73.18" r="8.4"/><rect class="k" x="113.76" y="82.97" width="74.17" height="8.4"/><rect class="j" x="113.76" y="101.17" width="134.35" height="5.6"/><rect class="j" x="113.76" y="115.16" width="114.75" height="5.6"/><rect class="j" x="113.76" y="127.76" width="125.95" height="5.6"/><rect class="j" x="113.76" y="140.35" width="97.96" height="5.6"/><rect class="l" x="456.62" y="63.38" width="69.93" height="8.4"/><rect class="m" x="456.62" y="81.57" width="92.36" height="5.6"/><rect class="m" x="456.62" y="95.57" width="78.89" height="5.6"/><rect class="m" x="456.62" y="108.16" width="86.59" height="5.6"/><rect class="m" x="456.62" y="120.76" width="67.35" height="5.6"/><rect class="l" x="456.62" y="159.94" width="62.01" height="8.4"/><rect class="l" x="456.62" y="246.71" width="92.36" height="18.19"/><rect class="m" x="456.62" y="178.14" width="85.77" height="5.6"/><rect class="m" x="456.62" y="192.13" width="76.53" height="5.6"/><rect class="m" x="456.62" y="204.73" width="81.81" height="5.6"/><rect class="m" x="456.62" y="217.32" width="67.35" height="5.6"/><path class="n" d="M656.15,495.81H504a14.19,14.19,0,0,1-14.18-14.17V244.09A14.19,14.19,0,0,1,504,229.91H656.15a14.19,14.19,0,0,1,14.17,14.18V481.64A14.19,14.19,0,0,1,656.15,495.81Z"/><path class="o" d="M669,244.09a12.86,12.86,0,0,0-12.82-12.82H504a12.85,12.85,0,0,0-12.82,12.82V481.64A12.84,12.84,0,0,0,504,494.45H656.15A12.85,12.85,0,0,0,669,481.64V244.09"/><path class="p" d="M503.72,482.57a4.49,4.49,0,0,1-4.49-4.48V248.5a4.49,4.49,0,0,1,4.49-4.47H656.5A4.49,4.49,0,0,1,661,248.5V478.09a4.49,4.49,0,0,1-4.49,4.48Z"/><rect class="h" x="499.98" y="244.78" width="160.26" height="237.04" rx="3.74"/><path class="k" d="M557.64,436l12.44-21.55A19.6,19.6,0,0,1,565,393l-20.75-13.75A44.21,44.21,0,0,0,557.64,436Z"/><path class="q" d="M564.87,380.84a19.54,19.54,0,0,1,9.31-5V350.93a44.3,44.3,0,0,0-30.06,16.17Z"/><path class="r" d="M587.74,355.86v24.9a19.7,19.7,0,1,1-10.19,38l-12.44,21.54a44.32,44.32,0,1,0,22.63-84.46Z"/><path class="s" d="M566.55,363.15a1.64,1.64,0,0,1-1.47-.91L559,350h-40a1.65,1.65,0,0,1,0-3.29H561l7,14a1.66,1.66,0,0,1-.74,2.21A1.7,1.7,0,0,1,566.55,363.15Z"/><path class="s" d="M595.28,355.76a1.63,1.63,0,0,1-1.41-2.48l5.4-9h42a1.64,1.64,0,0,1,0,3.28H601.13L596.69,355A1.63,1.63,0,0,1,595.28,355.76Z"/><path class="s" d="M568.61,459.19H526.32a1.64,1.64,0,1,1,0-3.28h39.81l2.94-10.3a1.64,1.64,0,1,1,3.16.9Z"/><path class="s" d="M635.12,457.55H593.74a1.64,1.64,0,1,1,0-3.28h37.42L625,421.74a1.64,1.64,0,1,1,3.23-.61Z"/><rect class="k" x="515.74" y="257.96" width="68.85" height="7.79"/><rect class="j" x="515.74" y="274.85" width="124.72" height="5.2"/><rect class="j" x="515.74" y="287.85" width="106.53" height="5.2"/><rect class="j" x="515.74" y="299.54" width="116.92" height="5.2"/><rect class="j" x="515.74" y="311.23" width="90.94" height="5.2"/><rect class="t" x="35.39" y="291.11" width="97.96" height="204.69" rx="13.16"/><path class="p" d="M120.77,294.59h-9.62a1.28,1.28,0,0,0-1.21.88v1.28a5.1,5.1,0,0,1-5.08,5.08h-41a5.09,5.09,0,0,1-5.08-5.08v-.89a1.27,1.27,0,0,0-1.27-1.27H48a9.18,9.18,0,0,0-9.14,9.14V483.19A9.17,9.17,0,0,0,48,492.33h72.81a9.16,9.16,0,0,0,9.14-9.14V303.73a9.17,9.17,0,0,0-9.14-9.14Z"/><path class="h" d="M48,491.75a8.56,8.56,0,0,1-8.55-8.56V303.73A8.55,8.55,0,0,1,48,295.18h9.59a.67.67,0,0,1,.68.68v.89a5.67,5.67,0,0,0,5.67,5.66h41a5.68,5.68,0,0,0,5.67-5.66v-1.17a.67.67,0,0,1,.62-.4h9.62a8.56,8.56,0,0,1,8.56,8.55V483.19a8.57,8.57,0,0,1-8.56,8.56Z"/><path class="u" d="M93.89,297.21a1.58,1.58,0,1,1-1.58-1.58,1.58,1.58,0,0,1,1.58,1.58Z"/><path class="u" d="M86.71,298h-11a.82.82,0,0,1-.82-.82v-.13a.82.82,0,0,1,.82-.81h11a.82.82,0,0,1,.82.81v.13a.82.82,0,0,1-.82.82Z"/><rect class="l" x="48.06" y="315.09" width="56.83" height="6.82"/><rect class="m" x="48.06" y="329.88" width="75.05" height="4.55"/><rect class="m" x="48.06" y="341.25" width="64.11" height="4.55"/><rect class="m" x="48.06" y="351.48" width="70.36" height="4.55"/><rect class="m" x="48.06" y="361.72" width="54.73" height="4.55"/><rect class="l" x="48.06" y="393.56" width="50.39" height="6.82"/><rect class="l" x="48.06" y="464.06" width="75.05" height="14.78"/><rect class="m" x="48.06" y="408.34" width="69.69" height="4.55"/><rect class="m" x="48.06" y="419.71" width="62.19" height="4.55"/><rect class="m" x="48.06" y="429.95" width="66.48" height="4.55"/><rect class="m" x="48.06" y="440.18" width="54.73" height="4.55"/></svg>